HIERARCHY
ROOT Hips
{
    OFFSET 0.0 0.0 0.0
    CHANNELS 6 Xposition Yposition Zposition Zrotation Xrotation Yrotation
    JOINT LeftHipJoint
    {
        OFFSET 0.1 0.0 0.0
        CHANNELS 3 Zrotation Xrotation Yrotation
        JOINT LeftUpLeg
        {
            OFFSET 123.94468255163073 0.0 0.0
            CHANNELS 3 Zrotation Xrotation Yrotation
            JOINT LeftLeg
            {
                OFFSET 0.0 0.0 -401.69774561973054
                CHANNELS 3 Zrotation Xrotation Yrotation
                JOINT LeftFoot
                {
                    OFFSET 0.0 0.0 -371.6274558287992
                    CHANNELS 3 Zrotation Xrotation Yrotation
                    End Site
                    {
                        OFFSET 0.0 -0.1 0.0
                    }
                }
            }
        }
    }
    JOINT LowerBack
    {
        OFFSET 0.0 0.0 0.1
        CHANNELS 3 Zrotation Xrotation Yrotation
        JOINT Spine
        {
            OFFSET 0.0 0.0 220.0825437114433
            CHANNELS 3 Zrotation Xrotation Yrotation
            JOINT Spine1
            {
                OFFSET 0.0 0.0 255.58176053886064
                CHANNELS 3 Zrotation Xrotation Yrotation
                JOINT LeftShoulder
                {
                    OFFSET 0.1 0.0 0.0
                    CHANNELS 3 Zrotation Xrotation Yrotation
                    JOINT LeftArm
                    {
                        OFFSET 144.99547583059916 0.0 0.0
                        CHANNELS 3 Zrotation Xrotation Yrotation
                        JOINT LeftForeArm
                        {
                            OFFSET 261.02569718828227 0.0 0.0
                            CHANNELS 3 Zrotation Xrotation Yrotation
                            JOINT LeftHand
                            {
                                OFFSET 235.91080262953287 0.0 0.0
                                CHANNELS 3 Zrotation Xrotation Yrotation
                                End Site
                                {
                                    OFFSET 0.1 0.0 0.0
                                }
                            }
                        }
                    }
                }
                JOINT Neck
                {
                    OFFSET 0.0 0.0 0.1
                    CHANNELS 3 Zrotation Xrotation Yrotation
                    JOINT Neck1
                    {
                        OFFSET 0.0 0.0 110.22664661774894
                        CHANNELS 3 Zrotation Xrotation Yrotation
                        End Site
                        {
                            OFFSET 0.0 0.0 114.82985155106743
                        }
                    }
                }
                JOINT RightShoulder
                {
                    OFFSET -0.1 0.0 0.0
                    CHANNELS 3 Zrotation Xrotation Yrotation
                    JOINT RightArm
                    {
                        OFFSET -144.99547583059916 0.0 0.0
                        CHANNELS 3 Zrotation Xrotation Yrotation
                        JOINT RightForeArm
                        {
                            OFFSET -261.02569718828227 0.0 0.0
                            CHANNELS 3 Zrotation Xrotation Yrotation
                            JOINT RightHand
                            {
                                OFFSET -235.91080262953287 0.0 0.0
                                CHANNELS 3 Zrotation Xrotation Yrotation
                                End Site
                                {
                                    OFFSET -0.1 0.0 0.0
                                }
                            }
                        }
                    }
                }
            }
        }
    }
    JOINT RightHipJoint
    {
        OFFSET -0.1 0.0 0.0
        CHANNELS 3 Zrotation Xrotation Yrotation
        JOINT RightUpLeg
        {
            OFFSET -123.94468255163073 0.0 0.0
            CHANNELS 3 Zrotation Xrotation Yrotation
            JOINT RightLeg
            {
                OFFSET 0.0 0.0 -401.69774561973054
                CHANNELS 3 Zrotation Xrotation Yrotation
                JOINT RightFoot
                {
                    OFFSET 0.0 0.0 -371.6274558287992
                    CHANNELS 3 Zrotation Xrotation Yrotation
                    End Site
                    {
                        OFFSET 0.0 -0.1 0.0
                    }
                }
            }
        }
    }
}
MOTION
Frames: 8
Frame Time: 0.03333333333333333
0.0 0.0 789.2899536151724 25.446712998226957 -0.08014895615334042 4.618979390478517 3.4483642953516864e-34 1.987846675914698e-16 -1.987846675914698e-16 0.045402387967180054 -18.178364914044547 -1.126391153586806 -0.8121915900970648 32.66693689341674 -0.10879725306493686 0.0 0.0 0.0 3.4483642953516864e-34 1.987846675914698e-16 -1.987846675914698e-16 0.002448511790750757 -1.0663994409955602 -1.286586652681159 1.0378870574420813 -6.939173768411903e-16 2.0507799257372545e-16 0.0 0.0 -1.4908850069360235e-16 -36.932476700252586 12.50418988634951 81.56637789477041 -15.85157351392458 -3.4242772692613246e-15 1.5302900613755595e-15 0.0 0.0 -2.6338968455869747e-15 0.0 0.0 -1.4908850069360235e-16 -3.3545602641102144 -4.725895764492411 -1.1895676346866126 0.0 0.0 -1.4908850069360235e-16 22.389088394011115 10.873228017286173 -76.72054646907934 29.858540788386325 1.6387900045038488e-15 6.146387528317447e-15 -6.3611093629270335e-15 -3.531125038440127e-31 6.3611093629270335e-15 3.4483642953516864e-34 1.987846675914698e-16 -1.987846675914698e-16 0.027245737917218578 -12.553746416565488 -3.524311317806737 -1.7672123824650028 25.75474390891653 1.4086925699179886 -6.896728590703373e-34 -1.9878466759146977e-16 -3.9756933518293955e-16
0.0 0.0 789.2899536151724 25.523402479809903 -0.02882333287517936 4.687685199238845 0.0 0.0 -3.975693351829396e-16 0.06584935754244804 -18.511078762009625 -1.2385786947305468 -0.9495595368600936 33.38393764075399 -0.06486619718394843 -3.1805546814635168e-15 2.2069531490250793e-32 -7.951386703658792e-16 0.0 0.0 -3.975693351829396e-16 0.003108351114466096 -0.9372589194094599 -1.3025155056005344 0.9343589423407828 -9.817340245133582e-17 1.4989396287895358e-16 0.0 0.0 -1.4908850069360235e-16 -35.35182992478387 12.031973274580627 81.09615951724105 -15.896839291818763 -1.1270184018520374e-15 8.071872329431026e-15 0.0 0.0 2.882377680076312e-15 0.0 0.0 -1.4908850069360235e-16 -3.401612513271996 -4.980074747504952 -1.427634785583863 0.0 0.0 -1.4908850069360235e-16 21.942000623313827 10.719503968564622 -75.92265510210925 30.788680048266116 3.108097788821478e-16 1.3110079125299076e-14 6.361109362927035e-15 0.0 0.0 0.0 0.0 -3.975693351829396e-16 0.04037167145995963 -12.589307529317631 -3.6234533015678507 -1.8760559187222505 26.13927751656069 1.5075383701326877 0.0 0.0 -3.975693351829396e-16
0.0 0.0 789.2899536151724 25.602129770766226 0.04473010223050428 4.77108631734245 0.0 0.0 -2.4848083448933725e-16 0.09199855513012323 -18.91297434312051 -1.3810903841621165 -1.115851571514329 33.90570462759249 -0.018659740479268733 0.0 0.0 3.975693351829396e-16 0.0 0.0 -2.4848083448933725e-16 0.004010014153884061 -0.8771152963857994 -1.3424526141525797 0.85699319337122 9.4929657212701e-17 -5.97080641809716e-16 0.0 0.0 1.987846675914698e-16 -33.402455574781705 11.642731489857221 80.6558356995849 -16.16055921983007 -5.571483943098701e-15 -6.011210492892449e-15 0.0 0.0 2.7332891793827095e-16 0.0 0.0 1.987846675914698e-16 -3.5425545845715107 -5.206174628027708 -1.6823451319340204 0.0 0.0 1.987846675914698e-16 21.348198899463807 10.58843072057794 -75.00113447329056 32.045109368507646 2.6336494475724094e-15 9.171000126666501e-15 0.0 0.0 -1.5902773407317588e-15 0.0 0.0 -2.4848083448933725e-16 0.05680269649206857 -12.66745452236847 -3.7938520746551876 -2.0208617090524226 26.414897265757165 1.6742653926457216 0.0 0.0 3.975693351829396e-16
0.0 0.0 789.2899536151724 25.72485480582086 0.16930781416248172 4.826000537867711 0.0 0.0 3.975693351829396e-16 0.09345573437196177 -19.22977000659154 -1.4543976487659478 -1.1788639869483855 34.214060306084946 -0.04518289796849417 0.0 0.0 0.0 0.0 0.0 3.975693351829396e-16 0.00440579712945351 -0.9651570823647179 -1.3330847017817244 0.7605172603892855 -2.9058458916441357e-16 1.144965582012246e-15 0.0 0.0 -1.4908850069360235e-16 -32.03978410507069 11.57679030578804 80.38403455381129 -16.50448184290579 3.045480732897899e-15 -4.379051819235815e-15 0.0 0.0 9.783932858017654e-16 0.0 0.0 -1.4908850069360235e-16 -3.6223235590221043 -5.458537148083999 -1.9786273441970637 0.0 0.0 -1.4908850069360235e-16 19.874369517562428 10.42790379692005 -73.84854817206542 33.75968466263788 -8.479998038466667e-15 1.5868186156096897e-14 6.3611093629270335e-15 0.0 0.0 0.0 0.0 3.975693351829396e-16 0.05739046877135129 -12.802060338014627 -3.9121838471365415 -2.106794245524719 26.709934170435186 1.696583544709412 0.0 0.0 3.975693351829396e-16
0.0 0.0 789.2899536151724 25.857310180409694 0.0750015647794129 4.927712933317553 0.0 0.0 4.969616689786745e-17 0.06339520983123641 -19.183125122710393 -1.644061882870419 -1.2455149322864758 34.197084355789485 -0.022312631938578804 0.0 0.0 3.975693351829396e-16 0.0 0.0 4.969616689786745e-17 0.0031636031311383156 -1.0296393076063621 -1.3548447987974999 0.6816730468710621 -9.584305340042319e-17 5.969347047687098e-16 0.0 0.0 9.93923337957349e-17 -31.103826837844792 11.535243818312495 79.99809313179654 -17.07445160125406 -7.785193438687872e-15 3.655610375877591e-15 0.0 0.0 1.4660369234870898e-15 0.0 0.0 9.93923337957349e-17 -3.6032044950892184 -5.61040135059481 -2.2352202159651413 0.0 0.0 9.93923337957349e-17 17.511610587730974 9.140825264144524 -72.13987591963567 35.49400797811831 -5.93763514949626e-15 -8.118113675556744e-15 0.0 0.0 -1.5902773407317584e-15 0.0 0.0 4.969616689786745e-17 0.037157079098968086 -12.526302199750853 -4.113452867953257 -2.1605882280762634 26.671533333464524 1.7221248952267973 0.0 0.0 3.975693351829396e-16
0.0 0.0 789.2899536151724 25.90677563152597 0.00822506872663244 4.927577654776336 3.1805546814635168e-15 -4.138037154422024e-33 -1.4908850069360235e-16 0.05091113437371177 -19.114609552593436 -1.7054399590196467 -1.2536616707178974 34.02071358379645 0.029291468277268584 0.0 0.0 -3.975693351829396e-16 3.1805546814635168e-15 -4.138037154422024e-33 -1.4908850069360235e-16 0.0028693021383263185 -1.1658689163831173 -1.3257853487010551 0.44375857681482683 4.975352900272578e-16 1.4716289155431972e-16 5.17254644302753e-34 3.975693351829396e-16 -1.4908850069360235e-16 -30.365243063872942 11.282001237756871 79.67238115222547 -17.274732161687872 -1.4428979270960514e-15 4.204249945793838e-15 0.0 0.0 1.987846675914698e-15 5.17254644302753e-34 3.975693351829396e-16 -1.4908850069360235e-16 -3.4429131631663843 -5.626960666074476 -2.446250453661358 5.17254644302753e-34 3.975693351829396e-16 -1.4908850069360235e-16 14.654751009346024 7.7263745153364205 -70.41383369549328 37.62101647778473 6.021363399744677e-15 -2.051071704093539e-15 0.0 0.0 -1.5902773407317584e-15 3.1805546814635168e-15 -4.138037154422024e-33 -1.4908850069360235e-16 0.028598008105111882 -12.180702108131337 -4.2154842101948065 -2.1859561557479568 26.588009541984952 1.7797507069154361 0.0 0.0 7.951386703658791e-16
0.0 0.0 789.2899536151724 25.9732047483616 -0.15213904296088662 4.991506928133118 -6.034637516865451e-34 -1.987846675914698e-16 -3.4787316828507215e-16 0.01911179767945786 -18.988743016200797 -1.8438636985813885 -1.2624483555211126 33.60750639405436 0.11425335992934112 0.0 0.0 3.975693351829396e-16 -6.034637516865451e-34 -1.987846675914698e-16 -3.4787316828507215e-16 0.0011237815629233155 -1.280314145035151 -1.3808357194371619 0.11013138518958558 -4.966748682594633e-16 2.9865448235340387e-16 0.0 0.0 1.987846675914698e-16 -29.184870915116946 10.943052852588211 79.35070756657043 -17.49397426043636 2.9473728745503003e-15 -1.9156088658663727e-14 0.0 0.0 -1.1927080055488188e-15 0.0 0.0 1.987846675914698e-16 -3.3166807213019776 -5.3929349386552925 -2.67805561985642 0.0 0.0 1.987846675914698e-16 11.291335401368553 5.944665363130757 -68.55045170014598 41.048639619539784 3.727091817209798e-15 -8.187564426636514e-15 0.0 0.0 -3.975693351829396e-16 -6.034637516865451e-34 -1.987846675914698e-16 -3.4787316828507215e-16 0.008903422136834625 -11.788433859330858 -4.391966302122455 -2.2038583351174545 26.338177683163792 1.9012966213811089 -3.1805546814635168e-15 -1.987846675914698e-16 -5.517382872562698e-33
0.0 0.0 789.2899536151724 26.025091049156067 -0.3872115798191767 5.053235995449558 0.0 0.0 -1.4908850069360235e-16 0.0067886570016610715 -18.645399850247284 -1.9598724593384707 -1.2892377907230004 33.09018815695514 0.32718758189568564 0.0 0.0 -1.1927080055488188e-15 0.0 0.0 -1.4908850069360235e-16 0.00036117015403218643 -1.3707959947783563 -1.4964957847686773 -0.21232250902770655 -1.6574428356366266e-18 8.945294686535665e-16 0.0 0.0 1.987846675914698e-16 -28.86912512687533 10.649079538044658 78.9845146054254 -17.885400583145245 -2.8069626676302927e-15 7.607528712669875e-15 0.0 0.0 -2.3854160110976376e-15 0.0 0.0 1.987846675914698e-16 -3.294549668304801 -5.242216518856525 -2.8168530902588667 0.0 0.0 1.987846675914698e-16 8.65262979609934 4.065699736080888 -66.87350253520587 43.65898690165129 7.678996609962828e-15 2.06338594918673e-15 0.0 0.0 1.3914926731402886e-15 0.0 0.0 -1.4908850069360235e-16 0.0015446426581420235 -11.326892823150217 -4.40912994666208 -2.181282585326373 26.200863245138287 1.8547125349034594 0.0 0.0 -7.951386703658791e-16
